<?xml version="1.0" encoding="UTF-8"?>
<svg width="14px" height="14px" viewBox="0 0 14 14" version="1.1" xmlns="http://www.w3.org/2000/svg" xmlns:xlink="http://www.w3.org/1999/xlink">
    <!-- Generator: Sketch 52.2 (67145) - http://www.bohemiancoding.com/sketch -->
    <title>企业1</title>
    <desc>Created with Sketch.</desc>
    <g id="pc-1.0" stroke="none" stroke-width="1" fill="none" fill-rule="evenodd">
        <g id="企业1">
            <rect id="矩形" fill="#000000" opacity="0" x="0" y="0" width="14" height="14"></rect>
            <path d="M5.6875,8.4 L3.5,8.4 C3.2375,8.4 3.0625,8.575 3.0625,8.8375 C3.0625,9.1 3.2375,9.275 3.5,9.275 L5.6875,9.275 C5.95,9.275 6.125,9.1 6.125,8.8375 C6.125,8.575 5.95,8.4 5.6875,8.4 Z M5.6875,4.9 L3.5,4.9 C3.2375,4.9 3.0625,5.075 3.0625,5.3375 C3.0625,5.6 3.2375,5.775 3.5,5.775 L5.6875,5.775 C5.95,5.775 6.125,5.6 6.125,5.3375 C6.125,5.075 5.95,4.9 5.6875,4.9 Z" id="形状" fill="#C2CCD8" fill-rule="nonzero"></path>
            <path d="M13.5625,12.3375 L12.6875,12.3375 L12.6875,6.3 C12.6875,5.775 12.29375,5.29375 11.76875,5.1625 L7.875,4.15625 L7.875,1.8375 C7.875,1.53125 7.74375,1.225 7.48125,1.05 C7.175,0.83125 6.7375,0.74375 6.3,0.875 L2.275,1.88125 C1.70625,2.0125 1.3125,2.5375 1.3125,3.10625 L1.3125,12.38125 L0.4375,12.38125 C0.175,12.38125 0,12.55625 0,12.81875 C0,13.08125 0.175,13.25625 0.4375,13.25625 L13.5625,13.25625 C13.825,13.25625 14,13.08125 14,12.81875 C14,12.55625 13.825,12.3375 13.5625,12.3375 Z M7,12.3375 L2.1875,12.3375 L2.1875,3.10625 C2.1875,2.93125 2.31875,2.75625 2.49375,2.7125 L6.51875,1.6625 C6.7375,1.61875 6.86875,1.6625 6.95625,1.70625 C7,1.75 7,1.79375 7,1.8375 L7,12.3375 Z M11.8125,12.3375 L7.875,12.3375 L7.875,5.03125 L11.55,5.99375 C11.68125,6.0375 11.8125,6.2125 11.8125,6.3 L11.8125,12.3375 Z" id="形状" fill="#C2CCD8" fill-rule="nonzero"></path>
            <path d="M10.5,8.4 L9.1875,8.4 C8.925,8.4 8.75,8.575 8.75,8.8375 C8.75,9.1 8.925,9.275 9.1875,9.275 L10.5,9.275 C10.7625,9.275 10.9375,9.1 10.9375,8.8375 C10.9375,8.575 10.7625,8.4 10.5,8.4 Z" id="路径" fill="#C2CCD8"></path>
        </g>
    </g>
</svg>