<?xml version="1.0" encoding="UTF-8"?>
<svg width="14px" height="14px" viewBox="0 0 14 14" version="1.1" xmlns="http://www.w3.org/2000/svg" xmlns:xlink="http://www.w3.org/1999/xlink">
    <!-- Generator: Sketch 52.2 (67145) - http://www.bohemiancoding.com/sketch -->
    <title>行为分析2</title>
    <desc>Created with Sketch.</desc>
    <g id="pc-1.0" stroke="none" stroke-width="1" fill="none" fill-rule="evenodd">
        <g id="行为分析2">
            <rect id="矩形" fill="#000000" opacity="0" x="0" y="0" width="14" height="14"></rect>
            <path d="M13.8660156,13.2316406 L11.5089844,10.8746094 C12.5152344,9.72070312 13.125,8.21269531 13.125,6.5625 C13.125,2.93808594 10.1869141,0 6.5625,0 C2.93808594,0 1.13686838e-13,2.93808594 1.13686838e-13,6.5625 C1.13686838e-13,10.1869141 2.93808594,13.125 6.5625,13.125 C8.22089844,13.125 9.73574219,12.5097656 10.8910156,11.4953125 L13.2480469,13.8509766 C13.3328125,13.9357422 13.4449219,13.9794922 13.5570313,13.9794922 C13.6691406,13.9794922 13.78125,13.9371094 13.8660156,13.8509766 C14.0369141,13.6800781 14.0369141,13.4025391 13.8660156,13.2316406 Z M6.5625,12.25 C5.79414063,12.25 5.04902344,12.0996094 4.34902344,11.8029297 C3.67226563,11.5171875 3.06386719,11.1056641 2.54023438,10.5833984 C2.01660156,10.0611328 1.6078125,9.45273437 1.32070313,8.77460938 C1.02539063,8.07460938 0.875,7.33085938 0.875,6.5625 C0.875,5.79414062 1.02539063,5.04902344 1.32207031,4.34902344 C1.6078125,3.67226563 2.01933594,3.06386719 2.54160156,2.54023438 C3.06386719,2.01660156 3.67226563,1.6078125 4.35039063,1.32070313 C5.05039063,1.02402344 5.79550781,0.873632813 6.56386719,0.873632813 C7.33222656,0.873632813 8.07734375,1.02402344 8.77734375,1.32070313 C9.45410156,1.60644531 10.0625,2.01796875 10.5861328,2.54023438 C11.1097656,3.0625 11.5185547,3.67089844 11.8056641,4.34902344 C12.0996094,5.04902344 12.25,5.79414062 12.25,6.5625 C12.25,7.33085938 12.0996094,8.07597656 11.8029297,8.77597656 C11.5171875,9.45273437 11.1056641,10.0611328 10.5833984,10.5847656 C10.0611328,11.1083984 9.45273438,11.5171875 8.77460938,11.8042969 C8.07597656,12.0996094 7.33085938,12.25 6.5625,12.25 Z M9.39257813,3.41796875 C8.87167969,3.41796875 8.44921875,3.84042969 8.44921875,4.36132812 C8.44921875,4.54179687 8.49980469,4.70996094 8.58730469,4.85351562 L7.56054688,6.56386719 C7.54277344,6.5625 7.52363281,6.5625 7.50585938,6.5625 C7.40742188,6.5625 7.31308594,6.57753906 7.22421875,6.60488281 L6.52011719,5.90078125 C6.54746094,5.81191406 6.5625,5.71757813 6.5625,5.61914062 C6.5625,5.09824219 6.14003906,4.67578125 5.61914063,4.67578125 C5.09824219,4.67578125 4.67578125,5.09824219 4.67578125,5.61914062 C4.67578125,5.79960938 4.72636719,5.96777344 4.81386719,6.11132812 L3.78710938,7.82167969 C3.76933594,7.8203125 3.75019531,7.8203125 3.73242188,7.8203125 C3.21152344,7.8203125 2.7890625,8.24277344 2.7890625,8.76367188 C2.7890625,9.28457031 3.21152344,9.70703125 3.73242188,9.70703125 C4.25332031,9.70703125 4.67578125,9.28457031 4.67578125,8.76367188 C4.67578125,8.58320312 4.62519531,8.41503906 4.53769531,8.27148438 L5.56445313,6.55976563 C5.58222656,6.56113281 5.60136719,6.56113281 5.61914063,6.56113281 C5.71757813,6.56113281 5.81191406,6.54609375 5.90078125,6.51875 L6.60488281,7.22285156 C6.57753906,7.31171875 6.5625,7.40605469 6.5625,7.50449219 C6.5625,8.02539062 6.98496094,8.44785156 7.50585938,8.44785156 C8.02675781,8.44785156 8.44921875,8.02539062 8.44921875,7.50449219 C8.44921875,7.32402344 8.39863281,7.15585937 8.31113281,7.01230469 L9.33789063,5.30195313 C9.35566406,5.30332031 9.37480469,5.30332031 9.39257813,5.30332031 C9.91347656,5.30332031 10.3359375,4.88085938 10.3359375,4.35996094 C10.3359375,3.8390625 9.91347656,3.41796875 9.39257813,3.41796875 Z M3.73242188,8.83203125 C3.69414063,8.83203125 3.6640625,8.80195312 3.6640625,8.76367188 C3.6640625,8.72539063 3.69414063,8.6953125 3.73242188,8.6953125 C3.77070313,8.6953125 3.80078125,8.72539063 3.80078125,8.76367188 C3.80078125,8.80195312 3.77070313,8.83203125 3.73242188,8.83203125 Z M5.61914063,5.6875 C5.58085938,5.6875 5.55078125,5.65742187 5.55078125,5.61914062 C5.55078125,5.58085938 5.58085938,5.55078125 5.61914063,5.55078125 C5.65742188,5.55078125 5.6875,5.58085938 5.6875,5.61914062 C5.6875,5.65742187 5.65742188,5.6875 5.61914063,5.6875 Z M7.50585938,7.57421875 C7.46757813,7.57421875 7.4375,7.54414062 7.4375,7.50585938 C7.4375,7.46757813 7.46757813,7.4375 7.50585938,7.4375 C7.54414063,7.4375 7.57421875,7.46757813 7.57421875,7.50585938 C7.57421875,7.54414062 7.54414063,7.57421875 7.50585938,7.57421875 Z M9.39257813,4.4296875 C9.35429688,4.4296875 9.32421875,4.39960937 9.32421875,4.36132812 C9.32421875,4.32304688 9.35429688,4.29296875 9.39257813,4.29296875 C9.43085938,4.29296875 9.4609375,4.32304688 9.4609375,4.36132812 C9.4609375,4.39960937 9.43085938,4.4296875 9.39257813,4.4296875 Z" id="形状" fill="#C2CCD8" fill-rule="nonzero"></path>
        </g>
    </g>
</svg>